0
SECTION
2
HEADER
9
$INSUNITS
70
4
9
$ACADVER
1
AC1014
9
$HANDSEED
5
FFFF
0
ENDSEC
0
SECTION
2
TABLES
0
TABLE
2
VPORT
5
8
100
AcDbSymbolTable
0
ENDTAB
0
TABLE
2
LTYPE
5
5
100
AcDbSymbolTable
0
LTYPE
5
14
100
AcDbSymbolTableRecord
100
AcDbLinetypeTableRecord
2
BYBLOCK
70
0
0
LTYPE
5
15
100
AcDbSymbolTableRecord
100
AcDbLinetypeTableRecord
2
BYLAYER
70
0
0
ENDTAB
0
TABLE
2
LAYER
5
2
100
AcDbSymbolTable
70
2
0
LAYER
5
50
100
AcDbSymbolTableRecord
100
AcDbLayerTableRecord
2
0
70
0
6
CONTINUOUS
0
ENDTAB
0
TABLE
2
STYLE
5
3
100
AcDbSymbolTable
70
1
0
STYLE
5
11
100
AcDbSymbolTableRecord
100
AcDbTextStyleTableRecord
2
STANDARD
70
0
0
ENDTAB
0
TABLE
2
VIEW
5
6
100
AcDbSymbolTable
70
0
0
ENDTAB
0
TABLE
2
UCS
5
7
100
AcDbSymbolTable
70
0
0
ENDTAB
0
TABLE
2
APPID
5
9
100
AcDbSymbolTable
70
2
0
APPID
5
12
100
AcDbSymbolTableRecord
100
AcDbRegAppTableRecord
2
ACAD
70
0
0
ENDTAB
0
TABLE
2
DIMSTYLE
5
A
100
AcDbSymbolTable
70
1
0
ENDTAB
0
TABLE
2
BLOCK_RECORD
5
1
100
AcDbSymbolTable
70
1
0
BLOCK_RECORD
5
1F
100
AcDbSymbolTableRecord
100
AcDbBlockTableRecord
2
*MODEL_SPACE
0
BLOCK_RECORD
5
1B
100
AcDbSymbolTableRecord
100
AcDbBlockTableRecord
2
*PAPER_SPACE
0
ENDTAB
0
ENDSEC
0
SECTION
2
BLOCKS
0
BLOCK
5
20
100
AcDbEntity
100
AcDbBlockBegin
2
*MODEL_SPACE
0
ENDBLK
5
21
100
AcDbEntity
100
AcDbBlockEnd
0
BLOCK
5
1C
100
AcDbEntity
100
AcDbBlockBegin
2
*PAPER_SPACE
0
ENDBLK
5
1D
100
AcDbEntity
100
AcDbBlockEnd
0
ENDSEC
0
SECTION
2
ENTITIES
0
LWPOLYLINE
5
100
100
AcDbEntity
8
0
100
AcDbPolyline
90
11
70
1
43
0.0
10
1.38777878078145e-15
20
-52.980800000000002
10
1.3877787807814457e-16
20
-0.63500000000000334
42
0.41421400000000208
10
-0.63499999999999912
20
2.0816681711721685e-15
10
-35.126399999999997
20
0
10
-35.164200000000001
20
-0.0016499999999996379
42
0.38888000000000778
10
-35.560000000000016
20
-0.43361299999999903
10
-35.560000000000002
20
-53.213000000000008
10
-35.557600000000001
20
-53.268300000000011
42
0.3888789999999695
10
-34.924999999999997
20
-53.847999999999971
10
-0.86722200000000083
20
-53.847999999999999
10
-0.79163700000000004
20
-53.844700000000003
42
0.38887799999999789
0
LWPOLYLINE
5
101
100
AcDbEntity
8
0
100
AcDbPolyline
90
4
70
1
43
0.0
10
-1.7485099999999998
20
-13.174000000000001
42
0.93660399999999433
10
-1.7485100000000005
20
-12.274000000000003
10
-1.8074900000000003
20
-12.274000000000001
42
0.93661935011726405
10
-1.8074900000000003
20
-13.174000000000001
0
LWPOLYLINE
5
102
100
AcDbEntity
8
0
100
AcDbPolyline
90
4
70
1
43
0.0
10
-24.582000000000008
20
-29.690300000000001
42
0.93659799999999849
10
-23.932000000000002
20
-29.690300000000001
10
-23.932000000000002
20
-29.6477
42
0.9366157644539711
10
-24.582000000000001
20
-29.6477
0
LWPOLYLINE
5
103
100
AcDbEntity
8
0
100
AcDbPolyline
90
4
70
1
43
0.0
10
-1.74851
20
-16.173999999999999
42
0.93660399999999433
10
-1.74851
20
-15.274000000000001
10
-1.8074900000000003
20
-15.274000000000001
42
0.93661935011726405
10
-1.8074900000000003
20
-16.173999999999999
0
LWPOLYLINE
5
104
100
AcDbEntity
8
0
100
AcDbPolyline
90
4
70
1
43
0.0
10
-20.242999999999999
20
-5.6883900000000001
42
0.92439400000001037
10
-20.843000000000004
20
-5.6883900000000001
10
-20.843000000000004
20
-5.7356100000000012
42
0.92439012914106256
10
-20.242999999999999
20
-5.7356100000000012
0
LWPOLYLINE
5
105
100
AcDbEntity
8
0
100
AcDbPolyline
90
4
70
1
43
0.0
10
-14.462999999999999
20
-5.6883900000000001
42
0.92439400000001037
10
-15.063000000000004
20
-5.6883900000000001
10
-15.063000000000002
20
-5.7356100000000012
42
0.924390129141062
10
-14.462999999999999
20
-5.7356100000000012
0
LWPOLYLINE
5
106
100
AcDbEntity
8
0
100
AcDbPolyline
90
74
70
1
43
0.0
10
-13.028000000000002
20
-5.6520000000000001
10
-13.028000000000002
20
-6.7520000000000007
10
-13.0291
20
-6.7781500000000001
10
-13.0326
20
-6.8040900000000004
10
-13.0382
20
-6.8296500000000009
10
-13.046100000000001
20
-6.854610000000001
10
-13.056100000000001
20
-6.8787799999999999
10
-13.068200000000001
20
-6.9020000000000001
10
-13.0823
20
-6.9240700000000013
10
-13.098200000000002
20
-6.944840000000001
10
-13.1159
20
-6.9641300000000008
10
-13.135200000000001
20
-6.9818100000000003
10
-13.155900000000003
20
-6.9977499999999999
10
-13.178000000000001
20
-7.0118100000000005
10
-13.201200000000002
20
-7.0238900000000006
10
-13.2254
20
-7.0339099999999997
10
-13.250400000000003
20
-7.041780000000001
10
-13.2759
20
-7.0474399999999999
10
-13.3019
20
-7.050860000000001
10
-13.327999999999999
20
-7.0520000000000005
10
-13.354100000000003
20
-7.050860000000001
10
-13.380100000000002
20
-7.0474399999999999
10
-13.4056
20
-7.041780000000001
10
-13.430600000000002
20
-7.0339099999999997
10
-13.454800000000002
20
-7.0238900000000006
10
-13.478000000000002
20
-7.0118100000000005
10
-13.500100000000002
20
-6.9977499999999999
10
-13.520799999999999
20
-6.9818100000000003
10
-13.540100000000002
20
-6.9641300000000008
10
-13.557800000000002
20
-6.944840000000001
10
-13.573700000000002
20
-6.9240700000000013
10
-13.587800000000001
20
-6.9020000000000001
10
-13.5999
20
-6.8787799999999999
10
-13.609900000000001
20
-6.854610000000001
10
-13.617800000000003
20
-6.8296500000000009
10
-13.6234
20
-6.8040900000000004
10
-13.626899999999999
20
-6.7781500000000001
10
-13.628
20
-6.7520000000000007
10
-13.628
20
-5.6520000000000001
10
-13.626899999999999
20
-5.6258499999999998
10
-13.6234
20
-5.5999100000000004
10
-13.617800000000003
20
-5.5743499999999999
10
-13.609900000000001
20
-5.5493899999999998
10
-13.5999
20
-5.5252200000000009
10
-13.587800000000001
20
-5.5020000000000007
10
-13.573700000000002
20
-5.4799300000000004
10
-13.557800000000002
20
-5.4591599999999998
10
-13.540100000000002
20
-5.43987
10
-13.520799999999999
20
-5.4221900000000005
10
-13.500100000000002
20
-5.40625
10
-13.478000000000002
20
-5.3921900000000003
10
-13.454800000000002
20
-5.3801100000000002
10
-13.430600000000002
20
-5.3700900000000011
10
-13.4056
20
-5.3622199999999998
10
-13.380100000000002
20
-5.35656
10
-13.354100000000003
20
-5.3531399999999998
10
-13.327999999999999
20
-5.3520000000000003
10
-13.3019
20
-5.3531399999999998
10
-13.2759
20
-5.35656
10
-13.250400000000003
20
-5.3622199999999998
10
-13.2254
20
-5.3700900000000011
10
-13.201200000000002
20
-5.3801100000000002
10
-13.178000000000001
20
-5.3921900000000003
10
-13.155900000000003
20
-5.40625
10
-13.135200000000001
20
-5.4221900000000005
10
-13.1159
20
-5.43987
10
-13.098200000000002
20
-5.4591599999999998
10
-13.0823
20
-5.4799300000000004
10
-13.068200000000001
20
-5.5020000000000007
10
-13.056100000000001
20
-5.5252200000000009
10
-13.046100000000001
20
-5.5493899999999998
10
-13.0382
20
-5.5743499999999999
10
-13.0326
20
-5.5999100000000004
10
-13.0291
20
-5.6258499999999998
0
LWPOLYLINE
5
107
100
AcDbEntity
8
0
100
AcDbPolyline
90
74
70
1
43
0.0
10
-21.678000000000001
20
-5.6520000000000001
10
-21.678000000000001
20
-6.7520000000000007
10
-21.679099999999998
20
-6.7781500000000001
10
-21.682600000000001
20
-6.8040900000000004
10
-21.688199999999998
20
-6.8296500000000009
10
-21.696100000000001
20
-6.854610000000001
10
-21.706099999999999
20
-6.8787799999999999
10
-21.7182
20
-6.9020000000000001
10
-21.732299999999999
20
-6.9240700000000013
10
-21.748200000000001
20
-6.944840000000001
10
-21.765900000000002
20
-6.9641300000000008
10
-21.785200000000003
20
-6.9818100000000003
10
-21.805900000000001
20
-6.9977499999999999
10
-21.827999999999999
20
-7.0118100000000005
10
-21.851199999999999
20
-7.0238900000000006
10
-21.875399999999999
20
-7.0339099999999997
10
-21.900400000000001
20
-7.041780000000001
10
-21.925899999999999
20
-7.0474399999999999
10
-21.951899999999998
20
-7.050860000000001
10
-21.978000000000005
20
-7.0520000000000005
10
-22.004100000000001
20
-7.050860000000001
10
-22.030100000000004
20
-7.0474399999999999
10
-22.055599999999998
20
-7.041780000000001
10
-22.0806
20
-7.0339099999999997
10
-22.104800000000001
20
-7.0238900000000006
10
-22.128
20
-7.0118100000000005
10
-22.150099999999998
20
-6.9977499999999999
10
-22.1708
20
-6.9818100000000003
10
-22.190100000000005
20
-6.9641300000000008
10
-22.207799999999999
20
-6.944840000000001
10
-22.223700000000001
20
-6.9240700000000013
10
-22.2378
20
-6.9020000000000001
10
-22.2499
20
-6.8787799999999999
10
-22.259899999999998
20
-6.854610000000001
10
-22.267800000000001
20
-6.8296500000000009
10
-22.273399999999999
20
-6.8040900000000004
10
-22.276900000000005
20
-6.7781500000000001
10
-22.277999999999999
20
-6.7520000000000007
10
-22.277999999999999
20
-5.6520000000000001
10
-22.276900000000005
20
-5.6258499999999998
10
-22.273399999999999
20
-5.5999100000000004
10
-22.267800000000001
20
-5.5743499999999999
10
-22.259899999999998
20
-5.5493899999999998
10
-22.2499
20
-5.5252200000000009
10
-22.2378
20
-5.5020000000000007
10
-22.223700000000001
20
-5.4799300000000004
10
-22.207799999999999
20
-5.4591599999999998
10
-22.190100000000005
20
-5.43987
10
-22.1708
20
-5.4221900000000005
10
-22.150099999999998
20
-5.40625
10
-22.128
20
-5.3921900000000003
10
-22.104800000000001
20
-5.3801100000000002
10
-22.0806
20
-5.3700900000000011
10
-22.055599999999998
20
-5.3622199999999998
10
-22.030100000000004
20
-5.35656
10
-22.004100000000001
20
-5.3531399999999998
10
-21.978000000000005
20
-5.3520000000000003
10
-21.951899999999998
20
-5.3531399999999998
10
-21.925899999999999
20
-5.35656
10
-21.900400000000001
20
-5.3622199999999998
10
-21.875399999999999
20
-5.3700900000000011
10
-21.851199999999999
20
-5.3801100000000002
10
-21.827999999999999
20
-5.3921900000000003
10
-21.805900000000001
20
-5.40625
10
-21.785200000000003
20
-5.4221900000000005
10
-21.765900000000002
20
-5.43987
10
-21.748200000000001
20
-5.4591599999999998
10
-21.732299999999999
20
-5.4799300000000004
10
-21.7182
20
-5.5020000000000007
10
-21.706099999999999
20
-5.5252200000000009
10
-21.696100000000001
20
-5.5493899999999998
10
-21.688199999999998
20
-5.5743499999999999
10
-21.682600000000001
20
-5.5999100000000004
10
-21.679099999999998
20
-5.6258499999999998
0
LWPOLYLINE
5
108
100
AcDbEntity
8
0
100
AcDbPolyline
90
74
70
1
43
0.0
10
-13.028000000000002
20
-1.6320000000000001
10
-13.028000000000002
20
-2.4319999999999999
10
-13.0291
20
-2.4581499999999998
10
-13.0326
20
-2.4840900000000001
10
-13.0382
20
-2.5096500000000006
10
-13.046100000000001
20
-2.5346099999999998
10
-13.056100000000001
20
-2.5587800000000001
10
-13.068200000000001
20
-2.5819999999999999
10
-13.0823
20
-2.6040700000000001
10
-13.098200000000002
20
-2.6248399999999998
10
-13.1159
20
-2.6441300000000001
10
-13.135200000000001
20
-2.66181
10
-13.155900000000003
20
-2.6777500000000005
10
-13.178000000000001
20
-2.6918100000000003
10
-13.201200000000002
20
-2.7038899999999999
10
-13.2254
20
-2.7139099999999998
10
-13.250400000000003
20
-2.7217799999999999
10
-13.2759
20
-2.7274400000000005
10
-13.3019
20
-2.7308599999999998
10
-13.327999999999999
20
-2.7320000000000007
10
-13.354100000000003
20
-2.7308599999999998
10
-13.380100000000002
20
-2.7274400000000005
10
-13.4056
20
-2.7217799999999999
10
-13.430600000000002
20
-2.7139099999999998
10
-13.454800000000002
20
-2.7038899999999999
10
-13.478000000000002
20
-2.6918100000000003
10
-13.500100000000002
20
-2.6777500000000005
10
-13.520799999999999
20
-2.66181
10
-13.540100000000002
20
-2.6441300000000001
10
-13.557800000000002
20
-2.6248399999999998
10
-13.573700000000002
20
-2.6040700000000001
10
-13.587800000000001
20
-2.5819999999999999
10
-13.5999
20
-2.5587800000000001
10
-13.609900000000001
20
-2.5346099999999998
10
-13.617800000000003
20
-2.5096500000000006
10
-13.6234
20
-2.4840900000000001
10
-13.626899999999999
20
-2.4581499999999998
10
-13.628
20
-2.4319999999999999
10
-13.628
20
-1.6320000000000001
10
-13.626899999999999
20
-1.60585
10
-13.6234
20
-1.5799099999999999
10
-13.617800000000003
20
-1.5543499999999999
10
-13.609900000000001
20
-1.5293900000000002
10
-13.5999
20
-1.5052200000000002
10
-13.587800000000001
20
-1.482
10
-13.573700000000002
20
-1.4599300000000002
10
-13.557800000000002
20
-1.4391600000000002
10
-13.540100000000002
20
-1.41987
10
-13.520799999999999
20
-1.40219
10
-13.500100000000002
20
-1.38625
10
-13.478000000000002
20
-1.37219
10
-13.454800000000002
20
-1.3601099999999999
10
-13.430600000000002
20
-1.3500900000000002
10
-13.4056
20
-1.3422200000000002
10
-13.380100000000002
20
-1.33656
10
-13.354100000000003
20
-1.3331400000000002
10
-13.327999999999999
20
-1.3320000000000001
10
-13.3019
20
-1.3331400000000002
10
-13.2759
20
-1.33656
10
-13.250400000000003
20
-1.3422200000000002
10
-13.2254
20
-1.3500900000000002
10
-13.201200000000002
20
-1.3601099999999999
10
-13.178000000000001
20
-1.37219
10
-13.155900000000003
20
-1.38625
10
-13.135200000000001
20
-1.40219
10
-13.1159
20
-1.41987
10
-13.098200000000002
20
-1.4391600000000002
10
-13.0823
20
-1.4599300000000002
10
-13.068200000000001
20
-1.482
10
-13.056100000000001
20
-1.5052200000000002
10
-13.046100000000001
20
-1.5293900000000002
10
-13.0382
20
-1.5543499999999999
10
-13.0326
20
-1.5799099999999999
10
-13.0291
20
-1.60585
0
LWPOLYLINE
5
109
100
AcDbEntity
8
0
100
AcDbPolyline
90
74
70
1
43
0.0
10
-21.678000000000001
20
-1.6320000000000001
10
-21.678000000000001
20
-2.4319999999999999
10
-21.679099999999998
20
-2.4581499999999998
10
-21.682600000000001
20
-2.4840900000000001
10
-21.688199999999998
20
-2.5096500000000006
10
-21.696100000000001
20
-2.5346099999999998
10
-21.706099999999999
20
-2.5587800000000001
10
-21.7182
20
-2.5819999999999999
10
-21.732299999999999
20
-2.6040700000000001
10
-21.748200000000001
20
-2.6248399999999998
10
-21.765900000000002
20
-2.6441300000000001
10
-21.785200000000003
20
-2.66181
10
-21.805900000000001
20
-2.6777500000000005
10
-21.827999999999999
20
-2.6918100000000003
10
-21.851199999999999
20
-2.7038899999999999
10
-21.875399999999999
20
-2.7139099999999998
10
-21.900400000000001
20
-2.7217799999999999
10
-21.925899999999999
20
-2.7274400000000005
10
-21.951899999999998
20
-2.7308599999999998
10
-21.978000000000005
20
-2.7320000000000007
10
-22.004100000000001
20
-2.7308599999999998
10
-22.030100000000004
20
-2.7274400000000005
10
-22.055599999999998
20
-2.7217799999999999
10
-22.0806
20
-2.7139099999999998
10
-22.104800000000001
20
-2.7038899999999999
10
-22.128
20
-2.6918100000000003
10
-22.150099999999998
20
-2.6777500000000005
10
-22.1708
20
-2.66181
10
-22.190100000000005
20
-2.6441300000000001
10
-22.207799999999999
20
-2.6248399999999998
10
-22.223700000000001
20
-2.6040700000000001
10
-22.2378
20
-2.5819999999999999
10
-22.2499
20
-2.5587800000000001
10
-22.259899999999998
20
-2.5346099999999998
10
-22.267800000000001
20
-2.5096500000000006
10
-22.273399999999999
20
-2.4840900000000001
10
-22.276900000000005
20
-2.4581499999999998
10
-22.277999999999999
20
-2.4319999999999999
10
-22.277999999999999
20
-1.6320000000000001
10
-22.276900000000005
20
-1.60585
10
-22.273399999999999
20
-1.5799099999999999
10
-22.267800000000001
20
-1.5543499999999999
10
-22.259899999999998
20
-1.5293900000000002
10
-22.2499
20
-1.5052200000000002
10
-22.2378
20
-1.482
10
-22.223700000000001
20
-1.4599300000000002
10
-22.207799999999999
20
-1.4391600000000002
10
-22.190100000000005
20
-1.41987
10
-22.1708
20
-1.40219
10
-22.150099999999998
20
-1.38625
10
-22.128
20
-1.37219
10
-22.104800000000001
20
-1.3601099999999999
10
-22.0806
20
-1.3500900000000002
10
-22.055599999999998
20
-1.3422200000000002
10
-22.030100000000004
20
-1.33656
10
-22.004100000000001
20
-1.3331400000000002
10
-21.978000000000005
20
-1.3320000000000001
10
-21.951899999999998
20
-1.3331400000000002
10
-21.925899999999999
20
-1.33656
10
-21.900400000000001
20
-1.3422200000000002
10
-21.875399999999999
20
-1.3500900000000002
10
-21.851199999999999
20
-1.3601099999999999
10
-21.827999999999999
20
-1.37219
10
-21.805900000000001
20
-1.38625
10
-21.785200000000003
20
-1.40219
10
-21.765900000000002
20
-1.41987
10
-21.748200000000001
20
-1.4391600000000002
10
-21.732299999999999
20
-1.4599300000000002
10
-21.7182
20
-1.482
10
-21.706099999999999
20
-1.5052200000000002
10
-21.696100000000001
20
-1.5293900000000002
10
-21.688199999999998
20
-1.5543499999999999
10
-21.682600000000001
20
-1.5799099999999999
10
-21.679099999999998
20
-1.60585
0
CIRCLE
5
110
100
AcDbEntity
8
0
100
AcDbCircle
10
-31.585999999999999
20
-24.812000000000005
30
-1.9984014443252818e-14
40
0.40000000000000008
210
0
220
0
230
1
0
CIRCLE
5
111
100
AcDbEntity
8
0
100
AcDbCircle
10
-17.018000000000001
20
-52.832000000000008
30
-1.9984014443252818e-14
40
0.1905
210
0
220
0
230
1
0
CIRCLE
5
112
100
AcDbEntity
8
0
100
AcDbCircle
10
-11.938000000000002
20
-24.003
30
-1.9984014443252818e-14
40
0.1905
210
0
220
0
230
1
0
CIRCLE
5
113
100
AcDbEntity
8
0
100
AcDbCircle
10
-14.478
20
-52.832000000000008
30
-1.9984014443252818e-14
40
0.1905
210
0
220
0
230
1
0
CIRCLE
5
114
100
AcDbEntity
8
0
100
AcDbCircle
10
-16.722999999999999
20
-46.184000000000005
30
-1.9984014443252818e-14
40
0.10000000000000002
210
0
220
0
230
1
0
CIRCLE
5
115
100
AcDbEntity
8
0
100
AcDbCircle
10
-30.226000000000003
20
-18.795999999999999
30
-1.9984014443252818e-14
40
0.1905
210
0
220
0
230
1
0
CIRCLE
5
116
100
AcDbEntity
8
0
100
AcDbCircle
10
-12.319000000000003
20
-15.24
30
-1.9984014443252818e-14
40
0.1905
210
0
220
0
230
1
0
CIRCLE
5
117
100
AcDbEntity
8
0
100
AcDbCircle
10
-11.938000000000002
20
-52.832000000000008
30
-1.9984014443252818e-14
40
0.1905
210
0
220
0
230
1
0
CIRCLE
5
118
100
AcDbEntity
8
0
100
AcDbCircle
10
-31.114999999999998
20
-40.894000000000005
30
-1.9984014443252818e-14
40
0.1905
210
0
220
0
230
1
0
CIRCLE
5
119
100
AcDbEntity
8
0
100
AcDbCircle
10
-32.385000000000005
20
-17.018000000000001
30
-1.9984014443252818e-14
40
0.1905
210
0
220
0
230
1
0
CIRCLE
5
120
100
AcDbEntity
8
0
100
AcDbCircle
10
-24.638000000000005
20
-48.641000000000005
30
-1.9984014443252818e-14
40
0.1905
210
0
220
0
230
1
0
CIRCLE
5
121
100
AcDbEntity
8
0
100
AcDbCircle
10
-25.204400000000003
20
-23.5534
30
-1.9984014443252818e-14
40
0.1905
210
0
220
0
230
1
0
CIRCLE
5
122
100
AcDbEntity
8
0
100
AcDbCircle
10
-25.399999999999999
20
-47.371000000000009
30
-1.9984014443252818e-14
40
0.1905
210
0
220
0
230
1
0
CIRCLE
5
123
100
AcDbEntity
8
0
100
AcDbCircle
10
-32.258000000000003
20
-18.795999999999999
30
-1.9984014443252818e-14
40
0.1905
210
0
220
0
230
1
0
CIRCLE
5
124
100
AcDbEntity
8
0
100
AcDbCircle
10
-32.004000000000005
20
-34.036000000000001
30
-1.9984014443252818e-14
40
0.1905
210
0
220
0
230
1
0
CIRCLE
5
125
100
AcDbEntity
8
0
100
AcDbCircle
10
-18.823
20
-44.084000000000003
30
-1.9984014443252818e-14
40
0.10000000000000002
210
0
220
0
230
1
0
CIRCLE
5
126
100
AcDbEntity
8
0
100
AcDbCircle
10
-32.512
20
-17.780000000000001
30
-1.9984014443252818e-14
40
0.1905
210
0
220
0
230
1
0
CIRCLE
5
127
100
AcDbEntity
8
0
100
AcDbCircle
10
-25.908000000000001
20
-46.100999999999999
30
-1.9984014443252818e-14
40
0.1905
210
0
220
0
230
1
0
CIRCLE
5
128
100
AcDbEntity
8
0
100
AcDbCircle
10
-17.145000000000003
20
-37.338000000000008
30
-1.9984014443252818e-14
40
0.1905
210
0
220
0
230
1
0
CIRCLE
5
129
100
AcDbEntity
8
0
100
AcDbCircle
10
-32.258000000000003
20
-23.367999999999999
30
-1.9984014443252818e-14
40
0.1905
210
0
220
0
230
1
0
CIRCLE
5
130
100
AcDbEntity
8
0
100
AcDbCircle
10
-25.654000000000003
20
-18.414999999999999
30
-1.9984014443252818e-14
40
0.1905
210
0
220
0
230
1
0
CIRCLE
5
131
100
AcDbEntity
8
0
100
AcDbCircle
10
-27.940000000000005
20
-11.43
30
-1.9984014443252818e-14
40
0.1905
210
0
220
0
230
1
0
CIRCLE
5
132
100
AcDbEntity
8
0
100
AcDbCircle
10
-28.193999999999999
20
-24.257000000000005
30
-1.9984014443252818e-14
40
0.1905
210
0
220
0
230
1
0
CIRCLE
5
133
100
AcDbEntity
8
0
100
AcDbCircle
10
-17.422999999999998
20
-45.484000000000002
30
-1.9984014443252818e-14
40
0.10000000000000002
210
0
220
0
230
1
0
CIRCLE
5
134
100
AcDbEntity
8
0
100
AcDbCircle
10
-16.002000000000002
20
-9.9060000000000024
30
-1.9984014443252818e-14
40
0.1905
210
0
220
0
230
1
0
CIRCLE
5
135
100
AcDbEntity
8
0
100
AcDbCircle
10
-31.876999999999999
20
-31.114999999999998
30
-1.9984014443252818e-14
40
0.1905
210
0
220
0
230
1
0
CIRCLE
5
136
100
AcDbEntity
8
0
100
AcDbCircle
10
-14.478
20
-13.462
30
-1.9984014443252818e-14
40
0.1905
210
0
220
0
230
1
0
CIRCLE
5
137
100
AcDbEntity
8
0
100
AcDbCircle
10
-16.023
20
-44.084000000000003
30
-1.9984014443252818e-14
40
0.10000000000000002
210
0
220
0
230
1
0
CIRCLE
5
138
100
AcDbEntity
8
0
100
AcDbCircle
10
-1.3970000000000002
20
-37.845999999999997
30
-1.9984014443252818e-14
40
0.1905
210
0
220
0
230
1
0
CIRCLE
5
139
100
AcDbEntity
8
0
100
AcDbCircle
10
-20.828000000000003
20
-21.463000000000001
30
-1.9984014443252818e-14
40
0.1905
210
0
220
0
230
1
0
CIRCLE
5
140
100
AcDbEntity
8
0
100
AcDbCircle
10
-1.6510000000000002
20
-32.131
30
-1.9984014443252818e-14
40
0.1905
210
0
220
0
230
1
0
CIRCLE
5
141
100
AcDbEntity
8
0
100
AcDbCircle
10
-18.123000000000001
20
-43.384
30
-1.9984014443252818e-14
40
0.10000000000000002
210
0
220
0
230
1
0
CIRCLE
5
142
100
AcDbEntity
8
0
100
AcDbCircle
10
-1.27
20
-49.403000000000006
30
-1.9984014443252818e-14
40
0.1905
210
0
220
0
230
1
0
CIRCLE
5
143
100
AcDbEntity
8
0
100
AcDbCircle
10
-32.385000000000005
20
-41.14800000000001
30
-1.9984014443252818e-14
40
0.1905
210
0
220
0
230
1
0
CIRCLE
5
144
100
AcDbEntity
8
0
100
AcDbCircle
10
-1.3970000000000002
20
-52.959000000000003
30
-1.9984014443252818e-14
40
0.1905
210
0
220
0
230
1
0
CIRCLE
5
145
100
AcDbEntity
8
0
100
AcDbCircle
10
-12.065000000000001
20
-49.911000000000001
30
-1.9984014443252818e-14
40
0.1905
210
0
220
0
230
1
0
CIRCLE
5
146
100
AcDbEntity
8
0
100
AcDbCircle
10
-8.5090000000000003
20
-46.863
30
-1.9984014443252818e-14
40
0.1905
210
0
220
0
230
1
0
CIRCLE
5
147
100
AcDbEntity
8
0
100
AcDbCircle
10
-31.369000000000003
20
-46.354999999999997
30
-1.9984014443252818e-14
40
0.1905
210
0
220
0
230
1
0
CIRCLE
5
148
100
AcDbEntity
8
0
100
AcDbCircle
10
-34.290000000000006
20
-33.781999999999996
30
-1.9984014443252818e-14
40
0.1905
210
0
220
0
230
1
0
CIRCLE
5
149
100
AcDbEntity
8
0
100
AcDbCircle
10
-22.986999999999998
20
-25.654000000000003
30
-1.9984014443252818e-14
40
0.1905
210
0
220
0
230
1
0
CIRCLE
5
150
100
AcDbEntity
8
0
100
AcDbCircle
10
-28.574999999999999
20
-5.7149999999999999
30
-1.9984014443252818e-14
40
0.1905
210
0
220
0
230
1
0
CIRCLE
5
151
100
AcDbEntity
8
0
100
AcDbCircle
10
-21.590000000000003
20
-33.274000000000001
30
-1.9984014443252818e-14
40
0.1905
210
0
220
0
230
1
0
CIRCLE
5
152
100
AcDbEntity
8
0
100
AcDbCircle
10
-17.422999999999998
20
-44.084000000000003
30
-1.9984014443252818e-14
40
0.10000000000000002
210
0
220
0
230
1
0
CIRCLE
5
153
100
AcDbEntity
8
0
100
AcDbCircle
10
-29.845000000000002
20
-4.0640000000000001
30
-1.9984014443252818e-14
40
0.1905
210
0
220
0
230
1
0
CIRCLE
5
154
100
AcDbEntity
8
0
100
AcDbCircle
10
-20.32
20
-27.431999999999999
30
-1.9984014443252818e-14
40
0.1905
210
0
220
0
230
1
0
CIRCLE
5
155
100
AcDbEntity
8
0
100
AcDbCircle
10
-9.3979999999999997
20
-5.0800000000000001
30
-1.9984014443252818e-14
40
0.1905
210
0
220
0
230
1
0
CIRCLE
5
156
100
AcDbEntity
8
0
100
AcDbCircle
10
-14.478
20
-33.020000000000003
30
-1.9984014443252818e-14
40
0.1905
210
0
220
0
230
1
0
CIRCLE
5
157
100
AcDbEntity
8
0
100
AcDbCircle
10
-30.099
20
-36.067999999999998
30
-1.9984014443252818e-14
40
0.1905
210
0
220
0
230
1
0
CIRCLE
5
158
100
AcDbEntity
8
0
100
AcDbCircle
10
-26.670000000000002
20
-19.050000000000004
30
-1.9984014443252818e-14
40
0.1905
210
0
220
0
230
1
0
CIRCLE
5
159
100
AcDbEntity
8
0
100
AcDbCircle
10
-32.639000000000003
20
-33.020000000000003
30
-1.9984014443252818e-14
40
0.1905
210
0
220
0
230
1
0
CIRCLE
5
160
100
AcDbEntity
8
0
100
AcDbCircle
10
-30.226000000000003
20
-26.161999999999999
30
-1.9984014443252818e-14
40
0.40000000000000008
210
0
220
0
230
1
0
CIRCLE
5
161
100
AcDbEntity
8
0
100
AcDbCircle
10
-33.274000000000001
20
-2.032
30
-1.9984014443252818e-14
40
0.1905
210
0
220
0
230
1
0
CIRCLE
5
162
100
AcDbEntity
8
0
100
AcDbCircle
10
-24.384
20
-21.463000000000001
30
-1.9984014443252818e-14
40
0.1905
210
0
220
0
230
1
0
CIRCLE
5
163
100
AcDbEntity
8
0
100
AcDbCircle
10
-34.036000000000001
20
-8.1280000000000001
30
-1.9984014443252818e-14
40
0.1905
210
0
220
0
230
1
0
CIRCLE
5
164
100
AcDbEntity
8
0
100
AcDbCircle
10
-16.722999999999999
20
-44.783999999999999
30
-1.9984014443252818e-14
40
0.10000000000000002
210
0
220
0
230
1
0
CIRCLE
5
165
100
AcDbEntity
8
0
100
AcDbCircle
10
-24.765000000000001
20
-22.859999999999999
30
-1.9984014443252818e-14
40
0.1905
210
0
220
0
230
1
0
CIRCLE
5
166
100
AcDbEntity
8
0
100
AcDbCircle
10
-17.018000000000001
20
-33.147000000000006
30
-1.9984014443252818e-14
40
0.1905
210
0
220
0
230
1
0
CIRCLE
5
167
100
AcDbEntity
8
0
100
AcDbCircle
10
-34.036000000000001
20
-25.146000000000001
30
-1.9984014443252818e-14
40
0.1905
210
0
220
0
230
1
0
CIRCLE
5
168
100
AcDbEntity
8
0
100
AcDbCircle
10
-16.023
20
-45.484000000000002
30
-1.9984014443252818e-14
40
0.10000000000000002
210
0
220
0
230
1
0
CIRCLE
5
169
100
AcDbEntity
8
0
100
AcDbCircle
10
-24.638000000000005
20
-52.832000000000008
30
-1.9984014443252818e-14
40
0.1905
210
0
220
0
230
1
0
CIRCLE
5
170
100
AcDbEntity
8
0
100
AcDbCircle
10
-19.684999999999999
20
-8.3820000000000014
30
-1.9984014443252818e-14
40
0.1905
210
0
220
0
230
1
0
CIRCLE
5
171
100
AcDbEntity
8
0
100
AcDbCircle
10
-20.828000000000003
20
-52.832000000000008
30
-1.9984014443252818e-14
40
0.1905
210
0
220
0
230
1
0
CIRCLE
5
172
100
AcDbEntity
8
0
100
AcDbCircle
10
-18.123000000000001
20
-46.184000000000005
30
-1.9984014443252818e-14
40
0.10000000000000002
210
0
220
0
230
1
0
CIRCLE
5
173
100
AcDbEntity
8
0
100
AcDbCircle
10
-32.258000000000003
20
-52.832000000000008
30
-1.9984014443252818e-14
40
0.1905
210
0
220
0
230
1
0
CIRCLE
5
174
100
AcDbEntity
8
0
100
AcDbCircle
10
-15.367000000000001
20
-8.2550000000000008
30
-1.9984014443252818e-14
40
0.1905
210
0
220
0
230
1
0
CIRCLE
5
175
100
AcDbEntity
8
0
100
AcDbCircle
10
-34.162999999999997
20
-48.387
30
-1.9984014443252818e-14
40
0.1905
210
0
220
0
230
1
0
CIRCLE
5
176
100
AcDbEntity
8
0
100
AcDbCircle
10
-10.667999999999999
20
-1.1430000000000002
30
-1.9984014443252818e-14
40
0.1905
210
0
220
0
230
1
0
CIRCLE
5
177
100
AcDbEntity
8
0
100
AcDbCircle
10
-18.161000000000001
20
-33.147000000000006
30
-1.9984014443252818e-14
40
0.1905
210
0
220
0
230
1
0
CIRCLE
5
178
100
AcDbEntity
8
0
100
AcDbCircle
10
-16.002000000000002
20
-1.016
30
-1.9984014443252818e-14
40
0.1905
210
0
220
0
230
1
0
CIRCLE
5
179
100
AcDbEntity
8
0
100
AcDbCircle
10
-18.123000000000001
20
-44.783999999999999
30
-1.9984014443252818e-14
40
0.10000000000000002
210
0
220
0
230
1
0
CIRCLE
5
180
100
AcDbEntity
8
0
100
AcDbCircle
10
-23.495000000000005
20
-1.3970000000000002
30
-1.9984014443252818e-14
40
0.1905
210
0
220
0
230
1
0
CIRCLE
5
181
100
AcDbEntity
8
0
100
AcDbCircle
10
-24.257000000000005
20
-22.352000000000004
30
-1.9984014443252818e-14
40
0.1905
210
0
220
0
230
1
0
CIRCLE
5
182
100
AcDbEntity
8
0
100
AcDbCircle
10
-20.193000000000005
20
-1.016
30
-1.9984014443252818e-14
40
0.1905
210
0
220
0
230
1
0
CIRCLE
5
183
100
AcDbEntity
8
0
100
AcDbCircle
10
-18.823
20
-45.484000000000002
30
-1.9984014443252818e-14
40
0.10000000000000002
210
0
220
0
230
1
0
CIRCLE
5
184
100
AcDbEntity
8
0
100
AcDbCircle
10
-0.88900000000000001
20
-4.4450000000000003
30
-1.9984014443252818e-14
40
0.1905
210
0
220
0
230
1
0
CIRCLE
5
185
100
AcDbEntity
8
0
100
AcDbCircle
10
-3.8100000000000001
20
-50.799999999999997
30
-1.9984014443252818e-14
40
0.1905
210
0
220
0
230
1
0
CIRCLE
5
186
100
AcDbEntity
8
0
100
AcDbCircle
10
-1.1430000000000002
20
-1.016
30
-1.9984014443252818e-14
40
0.1905
210
0
220
0
230
1
0
CIRCLE
5
187
100
AcDbEntity
8
0
100
AcDbCircle
10
-16.722999999999999
20
-43.384
30
-1.9984014443252818e-14
40
0.10000000000000002
210
0
220
0
230
1
0
CIRCLE
5
188
100
AcDbEntity
8
0
100
AcDbCircle
10
-1.1430000000000002
20
-7.1120000000000001
30
-1.9984014443252818e-14
40
0.1905
210
0
220
0
230
1
0
CIRCLE
5
189
100
AcDbEntity
8
0
100
AcDbCircle
10
-6.3499999999999996
20
-15.24
30
-1.9984014443252818e-14
40
0.1905
210
0
220
0
230
1
0
CIRCLE
5
190
100
AcDbEntity
8
0
100
AcDbCircle
10
-1.27
20
-24.892000000000003
30
-1.9984014443252818e-14
40
0.1905
210
0
220
0
230
1
0
ENDSEC
0
SECTION
2
OBJECTS
0
DICTIONARY
5
C
100
AcDbDictionary
3
ACAD_GROUP
350
D
3
ACAD_MLINESTYLE
350
17
0
DICTIONARY
5
D
100
AcDbDictionary
0
DICTIONARY
5
1A
330
C
100
AcDbDictionary
0
DICTIONARY
5
17
100
AcDbDictionary
0
ENDSEC
0
EOF
